<?xml version="1.0" encoding="UTF-8"?>
<svg xmlns="http://www.w3.org/2000/svg"
     xmlns:xlink="http://www.w3.org/1999/xlink"
     width="210mm" height="297mm"
     viewBox="0 0 210 297">

  <!--
    Pieczatka KOCIE OCZKA — arkusz do druku
    Format: A4 (210x297mm)
    Uklad:  2 kolumny x 5 rzedow = 10 pieczątek
    Druk:   100% skali, bez skalowania "dopasuj do strony"
    Cięcie: linie przerywane (szare) wyznaczają granice pieczątek
  -->

  <defs>
    <symbol id="pieczatka" viewBox="0 0 90 50">
<!--
    Pieczatka: KOCIE OCZKA — by Basia
    Rozmiar: 90 x 50 mm | Kolor: fiolet #5B2D8E
    Druk: otworz w Inkscape -> Eksportuj PNG 300 dpi
    QR: zastap placeholder prawdziwym QR gdy bedzie URL strony
  -->

  <!-- ═══ OBRAMOWANIE ═══ -->
  <rect x="0.8" y="0.8" width="88.4" height="48.4" rx="3"
        fill="none" stroke="#5B2D8E" stroke-width="1.2"/>
  <rect x="2"   y="2"   width="86"   height="46"   rx="2.5"
        fill="none" stroke="#5B2D8E" stroke-width="0.4"/>

  <!-- ═══ BANER GÓRNY: pełna szerokość, y=2..17 ═══ -->

  <text x="8" y="13.5" font-size="4.5" fill="#5B2D8E" font-family="Arial, sans-serif">✦</text>
  <text x="82" y="13.5" font-size="4.5" fill="#5B2D8E" font-family="Arial, sans-serif" text-anchor="end">✦</text>

  <text x="45" y="14"
        font-family="Georgia, 'Times New Roman', serif"
        font-size="10" font-weight="bold"
        fill="#5B2D8E" text-anchor="middle"
        textLength="65" lengthAdjust="spacingAndGlyphs">KOCIE OCZKA</text>

  <!-- Separator poziomy (podwójny) -->
  <line x1="2.5" y1="17.2" x2="87.5" y2="17.2" stroke="#5B2D8E" stroke-width="0.6"/>
  <line x1="2.5" y1="18.2" x2="87.5" y2="18.2" stroke="#5B2D8E" stroke-width="0.2"/>

  <!-- ═══ DOLNA CZĘŚĆ ═══ -->
  <!-- Strefy: Kot (x:2-34) | Tekst (x:34-66) | QR (x:66-88) -->

  <!-- Separator pionowy 1: kot / tekst -->
  <line x1="34" y1="18.5" x2="34" y2="47.5"
        stroke="#5B2D8E" stroke-width="0.4" stroke-dasharray="1.8,1"/>

  <!-- Separator pionowy 2: tekst / QR -->
  <line x1="66" y1="18.5" x2="66" y2="47.5"
        stroke="#5B2D8E" stroke-width="0.4" stroke-dasharray="1.8,1"/>

  <!-- ─── KOT (cx=17, cy=33.5, r=10) ─── -->

  <!-- Głowa -->
  <circle cx="17" cy="33.5" r="10"
          fill="none" stroke="#5B2D8E" stroke-width="0.8"/>

  <!-- Lewe ucho -->
  <polygon points="8.5,28 11,21.5 15.5,28" fill="#5B2D8E"/>
  <polygon points="9.8,27.5 11.5,23.5 14.2,27.5" fill="white"/>

  <!-- Prawe ucho -->
  <polygon points="18.5,28 22,21.5 25.5,28" fill="#5B2D8E"/>
  <polygon points="19.8,27.5 22.5,23.5 24.2,27.5" fill="white"/>

  <!-- Oczy — migdałkowe z pionową źrenicą -->
  <ellipse cx="13"  cy="32" rx="2.7" ry="2.5" fill="#5B2D8E"/>
  <ellipse cx="21"  cy="32" rx="2.7" ry="2.5" fill="#5B2D8E"/>
  <ellipse cx="13"  cy="32" rx="1.1" ry="2.1" fill="white"/>
  <ellipse cx="21"  cy="32" rx="1.1" ry="2.1" fill="white"/>
  <circle  cx="13.7" cy="31" r="0.65" fill="#5B2D8E"/>
  <circle  cx="21.7" cy="31" r="0.65" fill="#5B2D8E"/>

  <!-- Nos -->
  <polygon points="17,35.5 15.5,37.5 18.5,37.5" fill="#5B2D8E"/>
  <line x1="17" y1="35.5" x2="17" y2="37.5" stroke="#5B2D8E" stroke-width="0.5"/>

  <!-- Usta -->
  <path d="M 15.5,37.5 Q 17,39 18.5,37.5"
        fill="none" stroke="#5B2D8E" stroke-width="0.6" stroke-linecap="round"/>

  <!-- Wąsy lewe -->
  <line x1="4.5" y1="35"   x2="12.5" y2="35.8" stroke="#5B2D8E" stroke-width="0.4"/>
  <line x1="4.5" y1="37"   x2="12.5" y2="37.2" stroke="#5B2D8E" stroke-width="0.4"/>
  <line x1="4.5" y1="39"   x2="12.5" y2="38.6" stroke="#5B2D8E" stroke-width="0.4"/>

  <!-- Wąsy prawe (skrócone żeby nie nachodziły na szydełko) -->
  <line x1="21.5" y1="35.8" x2="27.5" y2="35"   stroke="#5B2D8E" stroke-width="0.4"/>
  <line x1="21.5" y1="37.2" x2="27.5" y2="37"   stroke="#5B2D8E" stroke-width="0.4"/>
  <line x1="21.5" y1="38.6" x2="27.5" y2="39"   stroke="#5B2D8E" stroke-width="0.4"/>

  <!-- Kokardka na głowie -->
  <path d="M 13,23 Q 15.5,20.5 17,22.5 Q 18.5,20.5 21,23"
        fill="none" stroke="#5B2D8E" stroke-width="0.85" stroke-linecap="round"/>
  <circle cx="17" cy="22.5" r="1" fill="#5B2D8E"/>

  <!-- ─── SZYDEŁKO (trzonek x=31, y=21..45) ─── -->

  <!-- Trzonek -->
  <line x1="31" y1="28" x2="31" y2="43"
        stroke="#5B2D8E" stroke-width="1.5" stroke-linecap="round"/>

  <!-- Haczyk (główka) -->
  <path d="M 31,28 Q 31,22.5 28,22.5 Q 26,22.5 26,24.5"
        fill="none" stroke="#5B2D8E" stroke-width="1.5" stroke-linecap="round"/>

  <!-- Zadzior haczyka -->
  <path d="M 26,24.5 Q 25.5,26.5 27,27"
        fill="none" stroke="#5B2D8E" stroke-width="1.2" stroke-linecap="round"/>

  <!-- Uchwyt ozdobny -->
  <rect x="29.8" y="41.5" width="2.4" height="5" rx="1" fill="#5B2D8E"/>
  <rect x="29.4" y="42.8" width="3.2" height="0.8" rx="0.4" fill="white"/>
  <rect x="29.4" y="44.3" width="3.2" height="0.8" rx="0.4" fill="white"/>

  <!-- Włóczka owijająca szydełko -->
  <path d="M 29,30 Q 27,32 29,34.5 Q 31,37 29,39 Q 27,41 29,43"
        fill="none" stroke="#5B2D8E" stroke-width="0.6" stroke-linecap="round"/>

  <!-- Kłębek włóczki pod szydełkiem -->
  <circle cx="28" cy="47" r="2" fill="none" stroke="#5B2D8E" stroke-width="0.5"/>
  <path d="M 26.2,46.2 Q 28,46.8 29.8,46.2" fill="none" stroke="#5B2D8E" stroke-width="0.4"/>
  <path d="M 26,47.8 Q 28,48.4 30,47.8"     fill="none" stroke="#5B2D8E" stroke-width="0.4"/>
  <!-- Nitka do szydełka -->
  <path d="M 29.8,45.5 Q 30.5,44 31,43"
        fill="none" stroke="#5B2D8E" stroke-width="0.4" stroke-dasharray="0.8,0.7"/>

  <!-- ─── TEKST ŚRODKOWY (center x=50, strefa x:34-66) ─── -->

  <!-- Ozdobniki -->
  <text x="50" y="25" font-size="3.5" fill="#5B2D8E" font-family="Arial, sans-serif"
        text-anchor="middle">✦ ✦ ✦</text>

  <!-- szydełkowe -->
  <text x="50" y="32"
        font-family="Georgia, 'Times New Roman', serif"
        font-size="5" font-style="italic"
        fill="#5B2D8E" text-anchor="middle"
        textLength="26" lengthAdjust="spacingAndGlyphs">szydełkowe</text>

  <!-- cuda (duże, wyróżnione) -->
  <text x="50" y="39"
        font-family="Georgia, 'Times New Roman', serif"
        font-size="7" font-weight="bold"
        fill="#5B2D8E" text-anchor="middle"
        textLength="22" lengthAdjust="spacingAndGlyphs">cuda</text>

  <!-- Linia dekoracyjna -->
  <line x1="36" y1="41" x2="64" y2="41" stroke="#5B2D8E" stroke-width="0.4"/>

  <!-- by Basia -->
  <text x="50" y="46.5"
        font-family="Georgia, 'Times New Roman', serif"
        font-size="4.5" font-style="italic"
        fill="#5B2D8E" text-anchor="middle"
        textLength="24" lengthAdjust="spacingAndGlyphs">♡ by Basia ♡</text>

  <!-- QR KOD: kocie-oczka.netlify.app -->

  <!-- Ramka -->
  <rect x="67" y="19.5" width="20" height="29" rx="1" fill="#5B2D8E" opacity="0.04"/>
  <rect x="69" y="21" width="16" height="16" rx="0.5" fill="white" stroke="#5B2D8E" stroke-width="0.4"/>

  <!-- Moduły QR -->
    <rect x="69.516" y="21.516" width="0.516" height="0.516" fill="#5B2D8E"/>
    <rect x="70.032" y="21.516" width="0.516" height="0.516" fill="#5B2D8E"/>
    <rect x="70.548" y="21.516" width="0.516" height="0.516" fill="#5B2D8E"/>
    <rect x="71.065" y="21.516" width="0.516" height="0.516" fill="#5B2D8E"/>
    <rect x="71.581" y="21.516" width="0.516" height="0.516" fill="#5B2D8E"/>
    <rect x="72.097" y="21.516" width="0.516" height="0.516" fill="#5B2D8E"/>
    <rect x="72.613" y="21.516" width="0.516" height="0.516" fill="#5B2D8E"/>
    <rect x="74.677" y="21.516" width="0.516" height="0.516" fill="#5B2D8E"/>
    <rect x="75.71" y="21.516" width="0.516" height="0.516" fill="#5B2D8E"/>
    <rect x="76.742" y="21.516" width="0.516" height="0.516" fill="#5B2D8E"/>
    <rect x="79.323" y="21.516" width="0.516" height="0.516" fill="#5B2D8E"/>
    <rect x="80.871" y="21.516" width="0.516" height="0.516" fill="#5B2D8E"/>
    <rect x="81.387" y="21.516" width="0.516" height="0.516" fill="#5B2D8E"/>
    <rect x="81.903" y="21.516" width="0.516" height="0.516" fill="#5B2D8E"/>
    <rect x="82.419" y="21.516" width="0.516" height="0.516" fill="#5B2D8E"/>
    <rect x="82.935" y="21.516" width="0.516" height="0.516" fill="#5B2D8E"/>
    <rect x="83.452" y="21.516" width="0.516" height="0.516" fill="#5B2D8E"/>
    <rect x="83.968" y="21.516" width="0.516" height="0.516" fill="#5B2D8E"/>
    <rect x="69.516" y="22.032" width="0.516" height="0.516" fill="#5B2D8E"/>
    <rect x="72.613" y="22.032" width="0.516" height="0.516" fill="#5B2D8E"/>
    <rect x="74.161" y="22.032" width="0.516" height="0.516" fill="#5B2D8E"/>
    <rect x="75.71" y="22.032" width="0.516" height="0.516" fill="#5B2D8E"/>
    <rect x="77.774" y="22.032" width="0.516" height="0.516" fill="#5B2D8E"/>
    <rect x="78.29" y="22.032" width="0.516" height="0.516" fill="#5B2D8E"/>
    <rect x="78.806" y="22.032" width="0.516" height="0.516" fill="#5B2D8E"/>
    <rect x="79.839" y="22.032" width="0.516" height="0.516" fill="#5B2D8E"/>
    <rect x="80.871" y="22.032" width="0.516" height="0.516" fill="#5B2D8E"/>
    <rect x="83.968" y="22.032" width="0.516" height="0.516" fill="#5B2D8E"/>
    <rect x="69.516" y="22.548" width="0.516" height="0.516" fill="#5B2D8E"/>
    <rect x="70.548" y="22.548" width="0.516" height="0.516" fill="#5B2D8E"/>
    <rect x="71.065" y="22.548" width="0.516" height="0.516" fill="#5B2D8E"/>
    <rect x="71.581" y="22.548" width="0.516" height="0.516" fill="#5B2D8E"/>
    <rect x="72.613" y="22.548" width="0.516" height="0.516" fill="#5B2D8E"/>
    <rect x="74.161" y="22.548" width="0.516" height="0.516" fill="#5B2D8E"/>
    <rect x="75.194" y="22.548" width="0.516" height="0.516" fill="#5B2D8E"/>
    <rect x="76.742" y="22.548" width="0.516" height="0.516" fill="#5B2D8E"/>
    <rect x="77.258" y="22.548" width="0.516" height="0.516" fill="#5B2D8E"/>
    <rect x="78.29" y="22.548" width="0.516" height="0.516" fill="#5B2D8E"/>
    <rect x="78.806" y="22.548" width="0.516" height="0.516" fill="#5B2D8E"/>
    <rect x="79.839" y="22.548" width="0.516" height="0.516" fill="#5B2D8E"/>
    <rect x="80.871" y="22.548" width="0.516" height="0.516" fill="#5B2D8E"/>
    <rect x="81.903" y="22.548" width="0.516" height="0.516" fill="#5B2D8E"/>
    <rect x="82.419" y="22.548" width="0.516" height="0.516" fill="#5B2D8E"/>
    <rect x="82.935" y="22.548" width="0.516" height="0.516" fill="#5B2D8E"/>
    <rect x="83.968" y="22.548" width="0.516" height="0.516" fill="#5B2D8E"/>
    <rect x="69.516" y="23.065" width="0.516" height="0.516" fill="#5B2D8E"/>
    <rect x="70.548" y="23.065" width="0.516" height="0.516" fill="#5B2D8E"/>
    <rect x="71.065" y="23.065" width="0.516" height="0.516" fill="#5B2D8E"/>
    <rect x="71.581" y="23.065" width="0.516" height="0.516" fill="#5B2D8E"/>
    <rect x="72.613" y="23.065" width="0.516" height="0.516" fill="#5B2D8E"/>
    <rect x="74.161" y="23.065" width="0.516" height="0.516" fill="#5B2D8E"/>
    <rect x="74.677" y="23.065" width="0.516" height="0.516" fill="#5B2D8E"/>
    <rect x="75.194" y="23.065" width="0.516" height="0.516" fill="#5B2D8E"/>
    <rect x="76.226" y="23.065" width="0.516" height="0.516" fill="#5B2D8E"/>
    <rect x="77.774" y="23.065" width="0.516" height="0.516" fill="#5B2D8E"/>
    <rect x="78.806" y="23.065" width="0.516" height="0.516" fill="#5B2D8E"/>
    <rect x="79.323" y="23.065" width="0.516" height="0.516" fill="#5B2D8E"/>
    <rect x="80.871" y="23.065" width="0.516" height="0.516" fill="#5B2D8E"/>
    <rect x="81.903" y="23.065" width="0.516" height="0.516" fill="#5B2D8E"/>
    <rect x="82.419" y="23.065" width="0.516" height="0.516" fill="#5B2D8E"/>
    <rect x="82.935" y="23.065" width="0.516" height="0.516" fill="#5B2D8E"/>
    <rect x="83.968" y="23.065" width="0.516" height="0.516" fill="#5B2D8E"/>
    <rect x="69.516" y="23.581" width="0.516" height="0.516" fill="#5B2D8E"/>
    <rect x="70.548" y="23.581" width="0.516" height="0.516" fill="#5B2D8E"/>
    <rect x="71.065" y="23.581" width="0.516" height="0.516" fill="#5B2D8E"/>
    <rect x="71.581" y="23.581" width="0.516" height="0.516" fill="#5B2D8E"/>
    <rect x="72.613" y="23.581" width="0.516" height="0.516" fill="#5B2D8E"/>
    <rect x="74.161" y="23.581" width="0.516" height="0.516" fill="#5B2D8E"/>
    <rect x="75.71" y="23.581" width="0.516" height="0.516" fill="#5B2D8E"/>
    <rect x="78.29" y="23.581" width="0.516" height="0.516" fill="#5B2D8E"/>
    <rect x="78.806" y="23.581" width="0.516" height="0.516" fill="#5B2D8E"/>
    <rect x="80.871" y="23.581" width="0.516" height="0.516" fill="#5B2D8E"/>
    <rect x="81.903" y="23.581" width="0.516" height="0.516" fill="#5B2D8E"/>
    <rect x="82.419" y="23.581" width="0.516" height="0.516" fill="#5B2D8E"/>
    <rect x="82.935" y="23.581" width="0.516" height="0.516" fill="#5B2D8E"/>
    <rect x="83.968" y="23.581" width="0.516" height="0.516" fill="#5B2D8E"/>
    <rect x="69.516" y="24.097" width="0.516" height="0.516" fill="#5B2D8E"/>
    <rect x="72.613" y="24.097" width="0.516" height="0.516" fill="#5B2D8E"/>
    <rect x="73.645" y="24.097" width="0.516" height="0.516" fill="#5B2D8E"/>
    <rect x="75.194" y="24.097" width="0.516" height="0.516" fill="#5B2D8E"/>
    <rect x="75.71" y="24.097" width="0.516" height="0.516" fill="#5B2D8E"/>
    <rect x="77.258" y="24.097" width="0.516" height="0.516" fill="#5B2D8E"/>
    <rect x="77.774" y="24.097" width="0.516" height="0.516" fill="#5B2D8E"/>
    <rect x="78.806" y="24.097" width="0.516" height="0.516" fill="#5B2D8E"/>
    <rect x="79.323" y="24.097" width="0.516" height="0.516" fill="#5B2D8E"/>
    <rect x="79.839" y="24.097" width="0.516" height="0.516" fill="#5B2D8E"/>
    <rect x="80.871" y="24.097" width="0.516" height="0.516" fill="#5B2D8E"/>
    <rect x="83.968" y="24.097" width="0.516" height="0.516" fill="#5B2D8E"/>
    <rect x="69.516" y="24.613" width="0.516" height="0.516" fill="#5B2D8E"/>
    <rect x="70.032" y="24.613" width="0.516" height="0.516" fill="#5B2D8E"/>
    <rect x="70.548" y="24.613" width="0.516" height="0.516" fill="#5B2D8E"/>
    <rect x="71.065" y="24.613" width="0.516" height="0.516" fill="#5B2D8E"/>
    <rect x="71.581" y="24.613" width="0.516" height="0.516" fill="#5B2D8E"/>
    <rect x="72.097" y="24.613" width="0.516" height="0.516" fill="#5B2D8E"/>
    <rect x="72.613" y="24.613" width="0.516" height="0.516" fill="#5B2D8E"/>
    <rect x="73.645" y="24.613" width="0.516" height="0.516" fill="#5B2D8E"/>
    <rect x="74.677" y="24.613" width="0.516" height="0.516" fill="#5B2D8E"/>
    <rect x="75.71" y="24.613" width="0.516" height="0.516" fill="#5B2D8E"/>
    <rect x="76.742" y="24.613" width="0.516" height="0.516" fill="#5B2D8E"/>
    <rect x="77.774" y="24.613" width="0.516" height="0.516" fill="#5B2D8E"/>
    <rect x="78.806" y="24.613" width="0.516" height="0.516" fill="#5B2D8E"/>
    <rect x="79.839" y="24.613" width="0.516" height="0.516" fill="#5B2D8E"/>
    <rect x="80.871" y="24.613" width="0.516" height="0.516" fill="#5B2D8E"/>
    <rect x="81.387" y="24.613" width="0.516" height="0.516" fill="#5B2D8E"/>
    <rect x="81.903" y="24.613" width="0.516" height="0.516" fill="#5B2D8E"/>
    <rect x="82.419" y="24.613" width="0.516" height="0.516" fill="#5B2D8E"/>
    <rect x="82.935" y="24.613" width="0.516" height="0.516" fill="#5B2D8E"/>
    <rect x="83.452" y="24.613" width="0.516" height="0.516" fill="#5B2D8E"/>
    <rect x="83.968" y="24.613" width="0.516" height="0.516" fill="#5B2D8E"/>
    <rect x="75.194" y="25.129" width="0.516" height="0.516" fill="#5B2D8E"/>
    <rect x="76.226" y="25.129" width="0.516" height="0.516" fill="#5B2D8E"/>
    <rect x="77.258" y="25.129" width="0.516" height="0.516" fill="#5B2D8E"/>
    <rect x="77.774" y="25.129" width="0.516" height="0.516" fill="#5B2D8E"/>
    <rect x="78.29" y="25.129" width="0.516" height="0.516" fill="#5B2D8E"/>
    <rect x="79.323" y="25.129" width="0.516" height="0.516" fill="#5B2D8E"/>
    <rect x="79.839" y="25.129" width="0.516" height="0.516" fill="#5B2D8E"/>
    <rect x="69.516" y="25.645" width="0.516" height="0.516" fill="#5B2D8E"/>
    <rect x="71.065" y="25.645" width="0.516" height="0.516" fill="#5B2D8E"/>
    <rect x="72.097" y="25.645" width="0.516" height="0.516" fill="#5B2D8E"/>
    <rect x="72.613" y="25.645" width="0.516" height="0.516" fill="#5B2D8E"/>
    <rect x="73.645" y="25.645" width="0.516" height="0.516" fill="#5B2D8E"/>
    <rect x="74.161" y="25.645" width="0.516" height="0.516" fill="#5B2D8E"/>
    <rect x="74.677" y="25.645" width="0.516" height="0.516" fill="#5B2D8E"/>
    <rect x="76.742" y="25.645" width="0.516" height="0.516" fill="#5B2D8E"/>
    <rect x="77.774" y="25.645" width="0.516" height="0.516" fill="#5B2D8E"/>
    <rect x="79.323" y="25.645" width="0.516" height="0.516" fill="#5B2D8E"/>
    <rect x="80.355" y="25.645" width="0.516" height="0.516" fill="#5B2D8E"/>
    <rect x="81.387" y="25.645" width="0.516" height="0.516" fill="#5B2D8E"/>
    <rect x="70.032" y="26.161" width="0.516" height="0.516" fill="#5B2D8E"/>
    <rect x="71.581" y="26.161" width="0.516" height="0.516" fill="#5B2D8E"/>
    <rect x="73.645" y="26.161" width="0.516" height="0.516" fill="#5B2D8E"/>
    <rect x="74.677" y="26.161" width="0.516" height="0.516" fill="#5B2D8E"/>
    <rect x="75.194" y="26.161" width="0.516" height="0.516" fill="#5B2D8E"/>
    <rect x="76.226" y="26.161" width="0.516" height="0.516" fill="#5B2D8E"/>
    <rect x="77.258" y="26.161" width="0.516" height="0.516" fill="#5B2D8E"/>
    <rect x="77.774" y="26.161" width="0.516" height="0.516" fill="#5B2D8E"/>
    <rect x="79.839" y="26.161" width="0.516" height="0.516" fill="#5B2D8E"/>
    <rect x="80.355" y="26.161" width="0.516" height="0.516" fill="#5B2D8E"/>
    <rect x="80.871" y="26.161" width="0.516" height="0.516" fill="#5B2D8E"/>
    <rect x="82.419" y="26.161" width="0.516" height="0.516" fill="#5B2D8E"/>
    <rect x="83.968" y="26.161" width="0.516" height="0.516" fill="#5B2D8E"/>
    <rect x="69.516" y="26.677" width="0.516" height="0.516" fill="#5B2D8E"/>
    <rect x="70.032" y="26.677" width="0.516" height="0.516" fill="#5B2D8E"/>
    <rect x="71.581" y="26.677" width="0.516" height="0.516" fill="#5B2D8E"/>
    <rect x="72.097" y="26.677" width="0.516" height="0.516" fill="#5B2D8E"/>
    <rect x="72.613" y="26.677" width="0.516" height="0.516" fill="#5B2D8E"/>
    <rect x="75.194" y="26.677" width="0.516" height="0.516" fill="#5B2D8E"/>
    <rect x="76.226" y="26.677" width="0.516" height="0.516" fill="#5B2D8E"/>
    <rect x="76.742" y="26.677" width="0.516" height="0.516" fill="#5B2D8E"/>
    <rect x="77.258" y="26.677" width="0.516" height="0.516" fill="#5B2D8E"/>
    <rect x="78.806" y="26.677" width="0.516" height="0.516" fill="#5B2D8E"/>
    <rect x="79.323" y="26.677" width="0.516" height="0.516" fill="#5B2D8E"/>
    <rect x="79.839" y="26.677" width="0.516" height="0.516" fill="#5B2D8E"/>
    <rect x="80.355" y="26.677" width="0.516" height="0.516" fill="#5B2D8E"/>
    <rect x="81.387" y="26.677" width="0.516" height="0.516" fill="#5B2D8E"/>
    <rect x="81.903" y="26.677" width="0.516" height="0.516" fill="#5B2D8E"/>
    <rect x="82.419" y="26.677" width="0.516" height="0.516" fill="#5B2D8E"/>
    <rect x="82.935" y="26.677" width="0.516" height="0.516" fill="#5B2D8E"/>
    <rect x="83.452" y="26.677" width="0.516" height="0.516" fill="#5B2D8E"/>
    <rect x="69.516" y="27.194" width="0.516" height="0.516" fill="#5B2D8E"/>
    <rect x="70.548" y="27.194" width="0.516" height="0.516" fill="#5B2D8E"/>
    <rect x="71.581" y="27.194" width="0.516" height="0.516" fill="#5B2D8E"/>
    <rect x="72.097" y="27.194" width="0.516" height="0.516" fill="#5B2D8E"/>
    <rect x="74.161" y="27.194" width="0.516" height="0.516" fill="#5B2D8E"/>
    <rect x="75.194" y="27.194" width="0.516" height="0.516" fill="#5B2D8E"/>
    <rect x="75.71" y="27.194" width="0.516" height="0.516" fill="#5B2D8E"/>
    <rect x="76.226" y="27.194" width="0.516" height="0.516" fill="#5B2D8E"/>
    <rect x="77.774" y="27.194" width="0.516" height="0.516" fill="#5B2D8E"/>
    <rect x="78.806" y="27.194" width="0.516" height="0.516" fill="#5B2D8E"/>
    <rect x="81.903" y="27.194" width="0.516" height="0.516" fill="#5B2D8E"/>
    <rect x="82.935" y="27.194" width="0.516" height="0.516" fill="#5B2D8E"/>
    <rect x="83.452" y="27.194" width="0.516" height="0.516" fill="#5B2D8E"/>
    <rect x="70.032" y="27.71" width="0.516" height="0.516" fill="#5B2D8E"/>
    <rect x="71.581" y="27.71" width="0.516" height="0.516" fill="#5B2D8E"/>
    <rect x="72.613" y="27.71" width="0.516" height="0.516" fill="#5B2D8E"/>
    <rect x="73.645" y="27.71" width="0.516" height="0.516" fill="#5B2D8E"/>
    <rect x="74.161" y="27.71" width="0.516" height="0.516" fill="#5B2D8E"/>
    <rect x="75.71" y="27.71" width="0.516" height="0.516" fill="#5B2D8E"/>
    <rect x="76.742" y="27.71" width="0.516" height="0.516" fill="#5B2D8E"/>
    <rect x="77.258" y="27.71" width="0.516" height="0.516" fill="#5B2D8E"/>
    <rect x="78.29" y="27.71" width="0.516" height="0.516" fill="#5B2D8E"/>
    <rect x="79.323" y="27.71" width="0.516" height="0.516" fill="#5B2D8E"/>
    <rect x="79.839" y="27.71" width="0.516" height="0.516" fill="#5B2D8E"/>
    <rect x="80.871" y="27.71" width="0.516" height="0.516" fill="#5B2D8E"/>
    <rect x="82.419" y="27.71" width="0.516" height="0.516" fill="#5B2D8E"/>
    <rect x="83.452" y="27.71" width="0.516" height="0.516" fill="#5B2D8E"/>
    <rect x="83.968" y="27.71" width="0.516" height="0.516" fill="#5B2D8E"/>
    <rect x="70.032" y="28.226" width="0.516" height="0.516" fill="#5B2D8E"/>
    <rect x="70.548" y="28.226" width="0.516" height="0.516" fill="#5B2D8E"/>
    <rect x="74.677" y="28.226" width="0.516" height="0.516" fill="#5B2D8E"/>
    <rect x="75.194" y="28.226" width="0.516" height="0.516" fill="#5B2D8E"/>
    <rect x="76.226" y="28.226" width="0.516" height="0.516" fill="#5B2D8E"/>
    <rect x="76.742" y="28.226" width="0.516" height="0.516" fill="#5B2D8E"/>
    <rect x="77.258" y="28.226" width="0.516" height="0.516" fill="#5B2D8E"/>
    <rect x="77.774" y="28.226" width="0.516" height="0.516" fill="#5B2D8E"/>
    <rect x="78.29" y="28.226" width="0.516" height="0.516" fill="#5B2D8E"/>
    <rect x="79.323" y="28.226" width="0.516" height="0.516" fill="#5B2D8E"/>
    <rect x="80.355" y="28.226" width="0.516" height="0.516" fill="#5B2D8E"/>
    <rect x="70.548" y="28.742" width="0.516" height="0.516" fill="#5B2D8E"/>
    <rect x="71.581" y="28.742" width="0.516" height="0.516" fill="#5B2D8E"/>
    <rect x="72.613" y="28.742" width="0.516" height="0.516" fill="#5B2D8E"/>
    <rect x="73.645" y="28.742" width="0.516" height="0.516" fill="#5B2D8E"/>
    <rect x="75.71" y="28.742" width="0.516" height="0.516" fill="#5B2D8E"/>
    <rect x="76.226" y="28.742" width="0.516" height="0.516" fill="#5B2D8E"/>
    <rect x="76.742" y="28.742" width="0.516" height="0.516" fill="#5B2D8E"/>
    <rect x="79.839" y="28.742" width="0.516" height="0.516" fill="#5B2D8E"/>
    <rect x="80.355" y="28.742" width="0.516" height="0.516" fill="#5B2D8E"/>
    <rect x="82.419" y="28.742" width="0.516" height="0.516" fill="#5B2D8E"/>
    <rect x="82.935" y="28.742" width="0.516" height="0.516" fill="#5B2D8E"/>
    <rect x="83.452" y="28.742" width="0.516" height="0.516" fill="#5B2D8E"/>
    <rect x="83.968" y="28.742" width="0.516" height="0.516" fill="#5B2D8E"/>
    <rect x="69.516" y="29.258" width="0.516" height="0.516" fill="#5B2D8E"/>
    <rect x="71.065" y="29.258" width="0.516" height="0.516" fill="#5B2D8E"/>
    <rect x="75.71" y="29.258" width="0.516" height="0.516" fill="#5B2D8E"/>
    <rect x="77.258" y="29.258" width="0.516" height="0.516" fill="#5B2D8E"/>
    <rect x="78.29" y="29.258" width="0.516" height="0.516" fill="#5B2D8E"/>
    <rect x="79.323" y="29.258" width="0.516" height="0.516" fill="#5B2D8E"/>
    <rect x="81.387" y="29.258" width="0.516" height="0.516" fill="#5B2D8E"/>
    <rect x="82.419" y="29.258" width="0.516" height="0.516" fill="#5B2D8E"/>
    <rect x="83.452" y="29.258" width="0.516" height="0.516" fill="#5B2D8E"/>
    <rect x="69.516" y="29.774" width="0.516" height="0.516" fill="#5B2D8E"/>
    <rect x="70.548" y="29.774" width="0.516" height="0.516" fill="#5B2D8E"/>
    <rect x="71.065" y="29.774" width="0.516" height="0.516" fill="#5B2D8E"/>
    <rect x="71.581" y="29.774" width="0.516" height="0.516" fill="#5B2D8E"/>
    <rect x="72.613" y="29.774" width="0.516" height="0.516" fill="#5B2D8E"/>
    <rect x="73.129" y="29.774" width="0.516" height="0.516" fill="#5B2D8E"/>
    <rect x="73.645" y="29.774" width="0.516" height="0.516" fill="#5B2D8E"/>
    <rect x="74.677" y="29.774" width="0.516" height="0.516" fill="#5B2D8E"/>
    <rect x="76.226" y="29.774" width="0.516" height="0.516" fill="#5B2D8E"/>
    <rect x="78.29" y="29.774" width="0.516" height="0.516" fill="#5B2D8E"/>
    <rect x="79.323" y="29.774" width="0.516" height="0.516" fill="#5B2D8E"/>
    <rect x="79.839" y="29.774" width="0.516" height="0.516" fill="#5B2D8E"/>
    <rect x="80.355" y="29.774" width="0.516" height="0.516" fill="#5B2D8E"/>
    <rect x="83.452" y="29.774" width="0.516" height="0.516" fill="#5B2D8E"/>
    <rect x="70.032" y="30.29" width="0.516" height="0.516" fill="#5B2D8E"/>
    <rect x="70.548" y="30.29" width="0.516" height="0.516" fill="#5B2D8E"/>
    <rect x="71.065" y="30.29" width="0.516" height="0.516" fill="#5B2D8E"/>
    <rect x="71.581" y="30.29" width="0.516" height="0.516" fill="#5B2D8E"/>
    <rect x="73.129" y="30.29" width="0.516" height="0.516" fill="#5B2D8E"/>
    <rect x="74.161" y="30.29" width="0.516" height="0.516" fill="#5B2D8E"/>
    <rect x="74.677" y="30.29" width="0.516" height="0.516" fill="#5B2D8E"/>
    <rect x="75.194" y="30.29" width="0.516" height="0.516" fill="#5B2D8E"/>
    <rect x="76.226" y="30.29" width="0.516" height="0.516" fill="#5B2D8E"/>
    <rect x="76.742" y="30.29" width="0.516" height="0.516" fill="#5B2D8E"/>
    <rect x="77.258" y="30.29" width="0.516" height="0.516" fill="#5B2D8E"/>
    <rect x="77.774" y="30.29" width="0.516" height="0.516" fill="#5B2D8E"/>
    <rect x="78.29" y="30.29" width="0.516" height="0.516" fill="#5B2D8E"/>
    <rect x="78.806" y="30.29" width="0.516" height="0.516" fill="#5B2D8E"/>
    <rect x="80.355" y="30.29" width="0.516" height="0.516" fill="#5B2D8E"/>
    <rect x="80.871" y="30.29" width="0.516" height="0.516" fill="#5B2D8E"/>
    <rect x="81.387" y="30.29" width="0.516" height="0.516" fill="#5B2D8E"/>
    <rect x="82.419" y="30.29" width="0.516" height="0.516" fill="#5B2D8E"/>
    <rect x="83.968" y="30.29" width="0.516" height="0.516" fill="#5B2D8E"/>
    <rect x="69.516" y="30.806" width="0.516" height="0.516" fill="#5B2D8E"/>
    <rect x="71.065" y="30.806" width="0.516" height="0.516" fill="#5B2D8E"/>
    <rect x="72.097" y="30.806" width="0.516" height="0.516" fill="#5B2D8E"/>
    <rect x="72.613" y="30.806" width="0.516" height="0.516" fill="#5B2D8E"/>
    <rect x="73.129" y="30.806" width="0.516" height="0.516" fill="#5B2D8E"/>
    <rect x="74.677" y="30.806" width="0.516" height="0.516" fill="#5B2D8E"/>
    <rect x="75.194" y="30.806" width="0.516" height="0.516" fill="#5B2D8E"/>
    <rect x="76.742" y="30.806" width="0.516" height="0.516" fill="#5B2D8E"/>
    <rect x="77.258" y="30.806" width="0.516" height="0.516" fill="#5B2D8E"/>
    <rect x="77.774" y="30.806" width="0.516" height="0.516" fill="#5B2D8E"/>
    <rect x="78.806" y="30.806" width="0.516" height="0.516" fill="#5B2D8E"/>
    <rect x="80.355" y="30.806" width="0.516" height="0.516" fill="#5B2D8E"/>
    <rect x="81.387" y="30.806" width="0.516" height="0.516" fill="#5B2D8E"/>
    <rect x="83.452" y="30.806" width="0.516" height="0.516" fill="#5B2D8E"/>
    <rect x="83.968" y="30.806" width="0.516" height="0.516" fill="#5B2D8E"/>
    <rect x="70.548" y="31.323" width="0.516" height="0.516" fill="#5B2D8E"/>
    <rect x="71.065" y="31.323" width="0.516" height="0.516" fill="#5B2D8E"/>
    <rect x="72.097" y="31.323" width="0.516" height="0.516" fill="#5B2D8E"/>
    <rect x="73.129" y="31.323" width="0.516" height="0.516" fill="#5B2D8E"/>
    <rect x="74.677" y="31.323" width="0.516" height="0.516" fill="#5B2D8E"/>
    <rect x="75.194" y="31.323" width="0.516" height="0.516" fill="#5B2D8E"/>
    <rect x="75.71" y="31.323" width="0.516" height="0.516" fill="#5B2D8E"/>
    <rect x="76.742" y="31.323" width="0.516" height="0.516" fill="#5B2D8E"/>
    <rect x="78.29" y="31.323" width="0.516" height="0.516" fill="#5B2D8E"/>
    <rect x="78.806" y="31.323" width="0.516" height="0.516" fill="#5B2D8E"/>
    <rect x="79.323" y="31.323" width="0.516" height="0.516" fill="#5B2D8E"/>
    <rect x="81.903" y="31.323" width="0.516" height="0.516" fill="#5B2D8E"/>
    <rect x="83.452" y="31.323" width="0.516" height="0.516" fill="#5B2D8E"/>
    <rect x="83.968" y="31.323" width="0.516" height="0.516" fill="#5B2D8E"/>
    <rect x="69.516" y="31.839" width="0.516" height="0.516" fill="#5B2D8E"/>
    <rect x="71.581" y="31.839" width="0.516" height="0.516" fill="#5B2D8E"/>
    <rect x="72.613" y="31.839" width="0.516" height="0.516" fill="#5B2D8E"/>
    <rect x="73.645" y="31.839" width="0.516" height="0.516" fill="#5B2D8E"/>
    <rect x="77.258" y="31.839" width="0.516" height="0.516" fill="#5B2D8E"/>
    <rect x="77.774" y="31.839" width="0.516" height="0.516" fill="#5B2D8E"/>
    <rect x="78.806" y="31.839" width="0.516" height="0.516" fill="#5B2D8E"/>
    <rect x="79.323" y="31.839" width="0.516" height="0.516" fill="#5B2D8E"/>
    <rect x="79.839" y="31.839" width="0.516" height="0.516" fill="#5B2D8E"/>
    <rect x="80.355" y="31.839" width="0.516" height="0.516" fill="#5B2D8E"/>
    <rect x="80.871" y="31.839" width="0.516" height="0.516" fill="#5B2D8E"/>
    <rect x="81.387" y="31.839" width="0.516" height="0.516" fill="#5B2D8E"/>
    <rect x="81.903" y="31.839" width="0.516" height="0.516" fill="#5B2D8E"/>
    <rect x="82.935" y="31.839" width="0.516" height="0.516" fill="#5B2D8E"/>
    <rect x="73.645" y="32.355" width="0.516" height="0.516" fill="#5B2D8E"/>
    <rect x="74.161" y="32.355" width="0.516" height="0.516" fill="#5B2D8E"/>
    <rect x="75.194" y="32.355" width="0.516" height="0.516" fill="#5B2D8E"/>
    <rect x="76.742" y="32.355" width="0.516" height="0.516" fill="#5B2D8E"/>
    <rect x="77.258" y="32.355" width="0.516" height="0.516" fill="#5B2D8E"/>
    <rect x="79.323" y="32.355" width="0.516" height="0.516" fill="#5B2D8E"/>
    <rect x="79.839" y="32.355" width="0.516" height="0.516" fill="#5B2D8E"/>
    <rect x="81.903" y="32.355" width="0.516" height="0.516" fill="#5B2D8E"/>
    <rect x="82.935" y="32.355" width="0.516" height="0.516" fill="#5B2D8E"/>
    <rect x="83.452" y="32.355" width="0.516" height="0.516" fill="#5B2D8E"/>
    <rect x="83.968" y="32.355" width="0.516" height="0.516" fill="#5B2D8E"/>
    <rect x="69.516" y="32.871" width="0.516" height="0.516" fill="#5B2D8E"/>
    <rect x="70.032" y="32.871" width="0.516" height="0.516" fill="#5B2D8E"/>
    <rect x="70.548" y="32.871" width="0.516" height="0.516" fill="#5B2D8E"/>
    <rect x="71.065" y="32.871" width="0.516" height="0.516" fill="#5B2D8E"/>
    <rect x="71.581" y="32.871" width="0.516" height="0.516" fill="#5B2D8E"/>
    <rect x="72.097" y="32.871" width="0.516" height="0.516" fill="#5B2D8E"/>
    <rect x="72.613" y="32.871" width="0.516" height="0.516" fill="#5B2D8E"/>
    <rect x="74.677" y="32.871" width="0.516" height="0.516" fill="#5B2D8E"/>
    <rect x="75.194" y="32.871" width="0.516" height="0.516" fill="#5B2D8E"/>
    <rect x="75.71" y="32.871" width="0.516" height="0.516" fill="#5B2D8E"/>
    <rect x="78.29" y="32.871" width="0.516" height="0.516" fill="#5B2D8E"/>
    <rect x="79.839" y="32.871" width="0.516" height="0.516" fill="#5B2D8E"/>
    <rect x="80.871" y="32.871" width="0.516" height="0.516" fill="#5B2D8E"/>
    <rect x="81.903" y="32.871" width="0.516" height="0.516" fill="#5B2D8E"/>
    <rect x="83.452" y="32.871" width="0.516" height="0.516" fill="#5B2D8E"/>
    <rect x="69.516" y="33.387" width="0.516" height="0.516" fill="#5B2D8E"/>
    <rect x="72.613" y="33.387" width="0.516" height="0.516" fill="#5B2D8E"/>
    <rect x="73.645" y="33.387" width="0.516" height="0.516" fill="#5B2D8E"/>
    <rect x="74.677" y="33.387" width="0.516" height="0.516" fill="#5B2D8E"/>
    <rect x="76.742" y="33.387" width="0.516" height="0.516" fill="#5B2D8E"/>
    <rect x="77.258" y="33.387" width="0.516" height="0.516" fill="#5B2D8E"/>
    <rect x="79.839" y="33.387" width="0.516" height="0.516" fill="#5B2D8E"/>
    <rect x="81.903" y="33.387" width="0.516" height="0.516" fill="#5B2D8E"/>
    <rect x="82.419" y="33.387" width="0.516" height="0.516" fill="#5B2D8E"/>
    <rect x="82.935" y="33.387" width="0.516" height="0.516" fill="#5B2D8E"/>
    <rect x="83.968" y="33.387" width="0.516" height="0.516" fill="#5B2D8E"/>
    <rect x="69.516" y="33.903" width="0.516" height="0.516" fill="#5B2D8E"/>
    <rect x="70.548" y="33.903" width="0.516" height="0.516" fill="#5B2D8E"/>
    <rect x="71.065" y="33.903" width="0.516" height="0.516" fill="#5B2D8E"/>
    <rect x="71.581" y="33.903" width="0.516" height="0.516" fill="#5B2D8E"/>
    <rect x="72.613" y="33.903" width="0.516" height="0.516" fill="#5B2D8E"/>
    <rect x="74.677" y="33.903" width="0.516" height="0.516" fill="#5B2D8E"/>
    <rect x="75.194" y="33.903" width="0.516" height="0.516" fill="#5B2D8E"/>
    <rect x="78.29" y="33.903" width="0.516" height="0.516" fill="#5B2D8E"/>
    <rect x="79.839" y="33.903" width="0.516" height="0.516" fill="#5B2D8E"/>
    <rect x="80.355" y="33.903" width="0.516" height="0.516" fill="#5B2D8E"/>
    <rect x="80.871" y="33.903" width="0.516" height="0.516" fill="#5B2D8E"/>
    <rect x="81.387" y="33.903" width="0.516" height="0.516" fill="#5B2D8E"/>
    <rect x="81.903" y="33.903" width="0.516" height="0.516" fill="#5B2D8E"/>
    <rect x="83.452" y="33.903" width="0.516" height="0.516" fill="#5B2D8E"/>
    <rect x="69.516" y="34.419" width="0.516" height="0.516" fill="#5B2D8E"/>
    <rect x="70.548" y="34.419" width="0.516" height="0.516" fill="#5B2D8E"/>
    <rect x="71.065" y="34.419" width="0.516" height="0.516" fill="#5B2D8E"/>
    <rect x="71.581" y="34.419" width="0.516" height="0.516" fill="#5B2D8E"/>
    <rect x="72.613" y="34.419" width="0.516" height="0.516" fill="#5B2D8E"/>
    <rect x="73.645" y="34.419" width="0.516" height="0.516" fill="#5B2D8E"/>
    <rect x="74.677" y="34.419" width="0.516" height="0.516" fill="#5B2D8E"/>
    <rect x="75.194" y="34.419" width="0.516" height="0.516" fill="#5B2D8E"/>
    <rect x="75.71" y="34.419" width="0.516" height="0.516" fill="#5B2D8E"/>
    <rect x="76.226" y="34.419" width="0.516" height="0.516" fill="#5B2D8E"/>
    <rect x="78.29" y="34.419" width="0.516" height="0.516" fill="#5B2D8E"/>
    <rect x="79.839" y="34.419" width="0.516" height="0.516" fill="#5B2D8E"/>
    <rect x="80.871" y="34.419" width="0.516" height="0.516" fill="#5B2D8E"/>
    <rect x="81.387" y="34.419" width="0.516" height="0.516" fill="#5B2D8E"/>
    <rect x="81.903" y="34.419" width="0.516" height="0.516" fill="#5B2D8E"/>
    <rect x="82.419" y="34.419" width="0.516" height="0.516" fill="#5B2D8E"/>
    <rect x="82.935" y="34.419" width="0.516" height="0.516" fill="#5B2D8E"/>
    <rect x="83.968" y="34.419" width="0.516" height="0.516" fill="#5B2D8E"/>
    <rect x="69.516" y="34.935" width="0.516" height="0.516" fill="#5B2D8E"/>
    <rect x="70.548" y="34.935" width="0.516" height="0.516" fill="#5B2D8E"/>
    <rect x="71.065" y="34.935" width="0.516" height="0.516" fill="#5B2D8E"/>
    <rect x="71.581" y="34.935" width="0.516" height="0.516" fill="#5B2D8E"/>
    <rect x="72.613" y="34.935" width="0.516" height="0.516" fill="#5B2D8E"/>
    <rect x="74.161" y="34.935" width="0.516" height="0.516" fill="#5B2D8E"/>
    <rect x="75.71" y="34.935" width="0.516" height="0.516" fill="#5B2D8E"/>
    <rect x="76.742" y="34.935" width="0.516" height="0.516" fill="#5B2D8E"/>
    <rect x="77.774" y="34.935" width="0.516" height="0.516" fill="#5B2D8E"/>
    <rect x="78.29" y="34.935" width="0.516" height="0.516" fill="#5B2D8E"/>
    <rect x="78.806" y="34.935" width="0.516" height="0.516" fill="#5B2D8E"/>
    <rect x="79.839" y="34.935" width="0.516" height="0.516" fill="#5B2D8E"/>
    <rect x="81.903" y="34.935" width="0.516" height="0.516" fill="#5B2D8E"/>
    <rect x="82.419" y="34.935" width="0.516" height="0.516" fill="#5B2D8E"/>
    <rect x="82.935" y="34.935" width="0.516" height="0.516" fill="#5B2D8E"/>
    <rect x="83.968" y="34.935" width="0.516" height="0.516" fill="#5B2D8E"/>
    <rect x="69.516" y="35.452" width="0.516" height="0.516" fill="#5B2D8E"/>
    <rect x="72.613" y="35.452" width="0.516" height="0.516" fill="#5B2D8E"/>
    <rect x="74.161" y="35.452" width="0.516" height="0.516" fill="#5B2D8E"/>
    <rect x="74.677" y="35.452" width="0.516" height="0.516" fill="#5B2D8E"/>
    <rect x="75.71" y="35.452" width="0.516" height="0.516" fill="#5B2D8E"/>
    <rect x="76.742" y="35.452" width="0.516" height="0.516" fill="#5B2D8E"/>
    <rect x="77.258" y="35.452" width="0.516" height="0.516" fill="#5B2D8E"/>
    <rect x="78.29" y="35.452" width="0.516" height="0.516" fill="#5B2D8E"/>
    <rect x="78.806" y="35.452" width="0.516" height="0.516" fill="#5B2D8E"/>
    <rect x="79.839" y="35.452" width="0.516" height="0.516" fill="#5B2D8E"/>
    <rect x="80.355" y="35.452" width="0.516" height="0.516" fill="#5B2D8E"/>
    <rect x="81.903" y="35.452" width="0.516" height="0.516" fill="#5B2D8E"/>
    <rect x="83.452" y="35.452" width="0.516" height="0.516" fill="#5B2D8E"/>
    <rect x="69.516" y="35.968" width="0.516" height="0.516" fill="#5B2D8E"/>
    <rect x="70.032" y="35.968" width="0.516" height="0.516" fill="#5B2D8E"/>
    <rect x="70.548" y="35.968" width="0.516" height="0.516" fill="#5B2D8E"/>
    <rect x="71.065" y="35.968" width="0.516" height="0.516" fill="#5B2D8E"/>
    <rect x="71.581" y="35.968" width="0.516" height="0.516" fill="#5B2D8E"/>
    <rect x="72.097" y="35.968" width="0.516" height="0.516" fill="#5B2D8E"/>
    <rect x="72.613" y="35.968" width="0.516" height="0.516" fill="#5B2D8E"/>
    <rect x="73.645" y="35.968" width="0.516" height="0.516" fill="#5B2D8E"/>
    <rect x="74.161" y="35.968" width="0.516" height="0.516" fill="#5B2D8E"/>
    <rect x="74.677" y="35.968" width="0.516" height="0.516" fill="#5B2D8E"/>
    <rect x="76.742" y="35.968" width="0.516" height="0.516" fill="#5B2D8E"/>
    <rect x="77.774" y="35.968" width="0.516" height="0.516" fill="#5B2D8E"/>
    <rect x="78.29" y="35.968" width="0.516" height="0.516" fill="#5B2D8E"/>
    <rect x="79.839" y="35.968" width="0.516" height="0.516" fill="#5B2D8E"/>
    <rect x="80.355" y="35.968" width="0.516" height="0.516" fill="#5B2D8E"/>
    <rect x="80.871" y="35.968" width="0.516" height="0.516" fill="#5B2D8E"/>
    <rect x="82.419" y="35.968" width="0.516" height="0.516" fill="#5B2D8E"/>
    <rect x="83.452" y="35.968" width="0.516" height="0.516" fill="#5B2D8E"/>

  <!-- URL pod QR -->
  <text x="77" y="40.5" font-family="Arial, sans-serif" font-size="2.2"
        fill="#5B2D8E" text-anchor="middle" textLength="18" lengthAdjust="spacingAndGlyphs">kocie-oczka</text>
  <text x="77" y="43.5" font-family="Arial, sans-serif" font-size="2.0"
        fill="#5B2D8E" text-anchor="middle" opacity="0.8">.netlify.app</text>
    </symbol>
  </defs>

  <!-- Tło białe -->
  <rect width="210" height="297" fill="white"/>

  <!-- Linie cięcia -->

  <rect x="9.5" y="10.5" width="91.0" height="51.0" fill="none" stroke="#cccccc" stroke-width="0.2" stroke-dasharray="2,1.5" rx="2.5"/>
  <rect x="109.5" y="10.5" width="91.0" height="51.0" fill="none" stroke="#cccccc" stroke-width="0.2" stroke-dasharray="2,1.5" rx="2.5"/>
  <rect x="9.5" y="66.75" width="91.0" height="51.0" fill="none" stroke="#cccccc" stroke-width="0.2" stroke-dasharray="2,1.5" rx="2.5"/>
  <rect x="109.5" y="66.75" width="91.0" height="51.0" fill="none" stroke="#cccccc" stroke-width="0.2" stroke-dasharray="2,1.5" rx="2.5"/>
  <rect x="9.5" y="123.0" width="91.0" height="51.0" fill="none" stroke="#cccccc" stroke-width="0.2" stroke-dasharray="2,1.5" rx="2.5"/>
  <rect x="109.5" y="123.0" width="91.0" height="51.0" fill="none" stroke="#cccccc" stroke-width="0.2" stroke-dasharray="2,1.5" rx="2.5"/>
  <rect x="9.5" y="179.25" width="91.0" height="51.0" fill="none" stroke="#cccccc" stroke-width="0.2" stroke-dasharray="2,1.5" rx="2.5"/>
  <rect x="109.5" y="179.25" width="91.0" height="51.0" fill="none" stroke="#cccccc" stroke-width="0.2" stroke-dasharray="2,1.5" rx="2.5"/>
  <rect x="9.5" y="235.5" width="91.0" height="51.0" fill="none" stroke="#cccccc" stroke-width="0.2" stroke-dasharray="2,1.5" rx="2.5"/>
  <rect x="109.5" y="235.5" width="91.0" height="51.0" fill="none" stroke="#cccccc" stroke-width="0.2" stroke-dasharray="2,1.5" rx="2.5"/>

  <!-- 10 pieczątek -->

  <use href="#pieczatka" x="10.0" y="11.0" width="90.0" height="50.0"/>
  <use href="#pieczatka" x="110.0" y="11.0" width="90.0" height="50.0"/>
  <use href="#pieczatka" x="10.0" y="67.25" width="90.0" height="50.0"/>
  <use href="#pieczatka" x="110.0" y="67.25" width="90.0" height="50.0"/>
  <use href="#pieczatka" x="10.0" y="123.5" width="90.0" height="50.0"/>
  <use href="#pieczatka" x="110.0" y="123.5" width="90.0" height="50.0"/>
  <use href="#pieczatka" x="10.0" y="179.75" width="90.0" height="50.0"/>
  <use href="#pieczatka" x="110.0" y="179.75" width="90.0" height="50.0"/>
  <use href="#pieczatka" x="10.0" y="236.0" width="90.0" height="50.0"/>
  <use href="#pieczatka" x="110.0" y="236.0" width="90.0" height="50.0"/>

</svg>